<?xml version="1.0" encoding="utf-8"?>
<!-- Generator: Adobe Illustrator 16.0.0, SVG Export Plug-In . SVG Version: 6.00 Build 0)  -->
<!DOCTYPE svg PUBLIC "-//W3C//DTD SVG 1.1//EN" "http://www.w3.org/Graphics/SVG/1.1/DTD/svg11.dtd">
<svg version="1.1" id="Layer_1" xmlns="http://www.w3.org/2000/svg" xmlns:xlink="http://www.w3.org/1999/xlink" x="0px" y="0px"
	 width="841.89px" height="595.281px" viewBox="0 0 841.89 595.281" enable-background="new 0 0 841.89 595.281"
	 xml:space="preserve">
<g>
	<defs>
		<rect id="SVGID_1_" width="841.89" height="595.281"/>
	</defs>
	<clipPath id="SVGID_2_">
		<use xlink:href="#SVGID_1_"  overflow="visible"/>
	</clipPath>
	<path clip-path="url(#SVGID_2_)" fill-rule="evenodd" clip-rule="evenodd" fill="#C859A1" d="M171.884,242.879
		c0.017-7.201,5.872-13.027,13.072-13.006c7.204,0.018,13.029,5.875,13.013,13.078c-0.011,5.799-3.813,10.705-9.053,12.385v31.715
		c0,0.115-0.181,0.215-0.398,0.215h-7.182c-0.223,0-0.4-0.1-0.4-0.215v-31.715C175.674,253.645,171.869,248.701,171.884,242.879"/>
	<path clip-path="url(#SVGID_2_)" fill-rule="evenodd" clip-rule="evenodd" fill="#5261AC" d="M144.318,265.1
		c-5.078-5.102-5.057-13.365,0.047-18.437c5.105-5.083,13.367-5.061,18.451,0.046c4.09,4.108,4.872,10.262,2.354,15.161
		l22.429,22.425c0.079,0.08,0.022,0.274-0.135,0.43l-5.08,5.078c-0.154,0.152-0.347,0.219-0.429,0.135l-22.429-22.432
		C154.608,270.036,148.429,269.23,144.318,265.1"/>
	<path clip-path="url(#SVGID_2_)" fill-rule="evenodd" clip-rule="evenodd" fill="#0079C1" d="M140.542,300.309
		c-7.198-0.02-13.029-5.877-13.006-13.074c0.017-7.203,5.872-13.031,13.076-13.012c5.8,0.01,10.708,3.814,12.389,9.053h31.713
		c0.116,0,0.212,0.179,0.212,0.396v7.186c0,0.219-0.096,0.396-0.212,0.396h-31.716C151.309,296.52,146.368,300.32,140.542,300.309"
		/>
	<path clip-path="url(#SVGID_2_)" fill-rule="evenodd" clip-rule="evenodd" fill="#00AEEF" stroke="#fff" d="M162.768,327.875
		c-5.105,5.078-13.367,5.057-18.443-0.049c-5.082-5.109-5.063-13.369,0.047-18.449c4.107-4.094,10.264-4.873,15.159-2.355
		l22.428-22.429c0.082-0.078,0.272-0.018,0.428,0.136l5.078,5.075c0.157,0.16,0.215,0.353,0.135,0.429l-22.43,22.432
		C167.697,317.578,166.894,323.764,162.768,327.875"/>
	<path clip-path="url(#SVGID_2_)" fill-rule="evenodd" clip-rule="evenodd" fill="#6CB33F" d="M197.97,331.646
		c-0.018,7.203-5.874,13.031-13.073,13.008c-7.203-0.02-13.028-5.873-13.013-13.078c0.011-5.793,3.814-10.705,9.056-12.385v-31.717
		c0-0.117,0.178-0.209,0.398-0.209h7.182c0.219,0,0.398,0.092,0.398,0.209v31.717C194.178,320.887,197.985,325.822,197.97,331.646"
		/>
	<path clip-path="url(#SVGID_2_)" fill-rule="evenodd" clip-rule="evenodd" fill="#C1D82F" d="M225.533,309.424
		c5.079,5.107,5.057,13.369-0.047,18.441c-5.103,5.08-13.365,5.061-18.447-0.046c-4.092-4.108-4.875-10.265-2.356-15.161
		l-22.427-22.425c-0.082-0.084-0.022-0.278,0.131-0.43l5.08-5.078c0.156-0.156,0.349-0.215,0.431-0.135l22.426,22.432
		C215.244,304.492,221.424,305.299,225.533,309.424"/>
	<path clip-path="url(#SVGID_2_)" fill-rule="evenodd" clip-rule="evenodd" fill="#F58020" d="M229.311,274.221
		c7.199,0.021,13.03,5.877,13.007,13.074c-0.019,7.203-5.873,13.028-13.079,13.014c-5.797-0.016-10.701-3.815-12.387-9.059h-31.714
		c-0.114,0-0.21-0.174-0.21-0.398v-7.18c0-0.217,0.096-0.4,0.21-0.4h31.717C218.544,278.012,223.485,274.207,229.311,274.221"/>
	<path clip-path="url(#SVGID_2_)" fill-rule="evenodd" clip-rule="evenodd" fill="#F15623" d="M207.086,246.66
		c5.105-5.086,13.367-5.061,18.445,0.041c5.078,5.105,5.059,13.365-0.049,18.449c-4.107,4.096-10.266,4.875-15.16,2.356
		l-22.427,22.431c-0.08,0.08-0.274,0.018-0.43-0.136l-5.078-5.077c-0.156-0.156-0.213-0.349-0.133-0.429l22.43-22.43
		C202.155,256.945,202.959,250.764,207.086,246.66"/>
	<path clip-path="url(#SVGID_2_)" fill-rule="evenodd" clip-rule="evenodd" fill="#00AEEF" stroke="#fff" d="M171.581,287.234
		c0.018-7.775,6.342-14.07,14.116-14.045c7.779,0.018,14.07,6.338,14.053,14.121c-0.019,7.774-6.343,14.064-14.12,14.045
		C177.851,301.332,171.563,295.014,171.581,287.234"/>
	<polygon clip-path="url(#SVGID_2_)" fill="#fff" points="381.369,306.498 381.369,300.863 385.787,300.863 385.787,274.746
		377.335,274.746 377.335,278.353 370.987,278.353 370.987,268.432 409.007,268.432 409.007,278.353 402.687,278.353
		402.687,274.746 394.087,274.746 394.087,300.863 398.499,300.863 398.499,306.498 	"/>
	<polygon clip-path="url(#SVGID_2_)" fill="#fff" points="543.473,306.498 543.473,300.863 547.101,300.863 547.101,274.666
		543.473,274.666 543.473,268.432 573.001,268.432 573.001,278.27 566.709,278.27 566.709,274.666 555.399,274.666 555.399,300.863
		558.988,300.863 558.988,306.498 	"/>
	<path clip-path="url(#SVGID_2_)" fill="#fff" d="M647.989,306.498v-13.629h-7.919l-5.303,10.432l-2.511,3.197h-7.861v-5.639
		h3.482l5.034-9.516c-5.71-1.99-8.117-5.734-8.117-10.836c0-7.27,4.92-12.076,15.96-12.076h19.161v6.234h-3.63v26.197h3.63v5.635
		H647.989z M640.448,287.465h7.541v-12.799h-6.398c-6.091,0-8.85,2.27-8.85,5.99C632.741,285.225,635.729,287.465,640.448,287.465"
		/>
	<path clip-path="url(#SVGID_2_)" fill="#fff" d="M518.591,267.096c11.497,0,20.785,8.451,20.785,20.102
		c0,11.724-9.288,20.252-20.785,20.252c-11.496,0-20.786-8.528-20.786-20.252C497.805,275.547,507.095,267.096,518.591,267.096
		 M518.591,301.055c7.232,0,13.249-5.787,13.249-13.857c0-7.996-6.017-13.704-13.249-13.704c-7.311,0-13.251,5.708-13.251,13.704
		C505.34,295.268,511.28,301.055,518.591,301.055"/>
	<path clip-path="url(#SVGID_2_)" fill="#fff" d="M431.876,267.096c11.498,0,20.785,8.451,20.785,20.102
		c0,11.724-9.287,20.252-20.785,20.252c-11.494,0-20.785-8.528-20.785-20.252C411.091,275.547,420.382,267.096,431.876,267.096
		 M431.876,301.055c7.234,0,13.251-5.787,13.251-13.857c0-7.996-6.017-13.704-13.251-13.704c-7.311,0-13.247,5.708-13.247,13.704
		C418.629,295.268,424.565,301.055,431.876,301.055"/>
	<path clip-path="url(#SVGID_2_)" fill="#fff" d="M490.368,300.863v-32.432h-29.374v6.235h3.488
		c-0.797,18.515-1.64,25.421-10.518,25.421v6.639c0.383,0.029,1.551,0,1.913,0c11.238,0,15.133-8.449,15.834-31.98h10.282v26.117
		h-3.588v5.635h15.55v-5.635H490.368z"/>
	<path clip-path="url(#SVGID_2_)" fill="#fff" d="M358.575,296.082c-2.446,3.096-6.154,4.973-10.265,4.973
		c-6.414,0-11.77-4.457-12.985-11.001h33.255c1.587-11.7-6.471-22.957-20.27-22.957c-11.494,0-20.553,8.451-20.553,20.101
		c0,11.725,9.059,20.252,20.553,20.252c8.311,0,15.446-4.469,18.774-11.367H358.575z M348.31,273.494
		c6.232,0,11.552,4.242,12.908,10.529h-25.816C336.744,277.736,342.012,273.494,348.31,273.494"/>
	<polygon clip-path="url(#SVGID_2_)" fill="#fff" points="306.528,268.432 306.528,268.436 306.464,268.436 306.464,274.082
		310.032,274.082 310.032,283.958 292.29,283.958 292.29,268.432 280.385,268.432 280.385,268.436 280.385,273.188 280.385,274.082
		283.993,274.082 283.993,300.863 280.385,300.863 280.385,306.498 295.946,306.498 295.946,300.863 292.29,300.863 292.29,289.901
		310.032,289.901 310.032,306.498 321.993,306.498 321.993,300.863 321.993,300.854 318.332,300.854 318.332,274.082
		321.993,274.082 321.993,273.137 321.993,268.436 321.993,268.432 	"/>
	<polygon clip-path="url(#SVGID_2_)" fill="#fff" points="615.278,300.836 615.278,268.432 607.589,268.432 588.097,294.088
		588.097,274.082 591.717,274.082 591.717,268.436 576.187,268.432 576.187,268.436 576.187,274.082 579.799,274.082
		579.799,306.498 585.891,306.498 585.967,306.344 606.902,279.014 606.902,300.836 603.404,300.836 603.404,306.48
		618.935,306.498 618.935,306.48 618.935,300.863 618.935,300.836 	"/>
</g>
<g>
	<path fill="#fff" d="M282.266,338.881c0.264,0.12,0.672,0.192,0.96,0.192c0.792,0,1.32-0.24,1.656-1.009l0.576-1.32
		l-4.752-11.736h2.688l3.384,8.688l3.384-8.688h2.712l-5.593,13.681c-0.792,1.969-2.184,2.593-3.984,2.616
		c-0.36,0-1.056-0.071-1.417-0.168L282.266,338.881z"/>
	<path fill="#fff" d="M294.46,336.601v-11.593h2.52v4.561h5.329v-4.561h2.52v11.593h-2.52v-4.824h-5.329v4.824H294.46z"/>
	<path fill="#fff" d="M308.094,336.601v-11.593h2.52v7.801l5.329-7.801h2.52v11.593h-2.52v-8.017l-5.425,8.017H308.094z"/>
	<path fill="#fff" d="M321.729,336.601v-11.593h6.937c2.208,0,3.432,1.32,3.432,2.976c0,1.393-0.888,2.329-1.944,2.641
		c1.249,0.288,2.185,1.464,2.185,2.832c0,1.801-1.248,3.145-3.504,3.145H321.729z M329.529,328.416c0-0.72-0.48-1.2-1.296-1.2
		h-3.984v2.353h3.984C329.049,329.568,329.529,329.063,329.529,328.416z M329.745,333.097c0-0.696-0.504-1.32-1.44-1.32h-4.056
		v2.616h4.056C329.193,334.393,329.745,333.912,329.745,333.097z"/>
	<path fill="#fff" d="M334.739,330.792c0-3.36,2.448-6.072,5.88-6.072c3.48,0,5.712,2.664,5.712,6.313v0.6h-8.953
		c0.192,1.753,1.512,3.192,3.696,3.192c1.128,0,2.472-0.456,3.289-1.271l1.152,1.655c-1.152,1.104-2.856,1.681-4.705,1.681
		C337.331,336.889,334.739,334.465,334.739,330.792z M340.619,326.784c-2.16,0-3.144,1.655-3.264,3.072h6.528
		C343.835,328.488,342.899,326.784,340.619,326.784z"/>
	<path fill="#fff" d="M351.349,334.992v6.024h-2.52v-16.009h2.52v1.584c0.864-1.152,2.208-1.872,3.72-1.872
		c3,0,5.137,2.256,5.137,6.072s-2.136,6.097-5.137,6.097C353.605,336.889,352.285,336.24,351.349,334.992z M357.59,330.792
		c0-2.232-1.272-3.84-3.265-3.84c-1.176,0-2.424,0.695-2.976,1.56v4.585c0.552,0.84,1.8,1.56,2.976,1.56
		C356.317,334.656,357.59,333.048,357.59,330.792z"/>
	<path fill="#fff" d="M361.983,330.792c0-3.504,2.472-6.072,6-6.072c2.256,0,3.625,0.96,4.44,2.064l-1.656,1.536
		c-0.648-0.912-1.536-1.368-2.664-1.368c-2.112,0-3.504,1.584-3.504,3.84s1.392,3.864,3.504,3.864c1.128,0,2.016-0.479,2.664-1.368
		l1.656,1.536c-0.816,1.104-2.184,2.064-4.44,2.064C364.455,336.889,361.983,334.32,361.983,330.792z"/>
	<path fill="#fff" d="M374.633,336.601v-11.593h2.52v7.801l5.329-7.801h2.52v11.593h-2.52v-8.017l-5.425,8.017H374.633z"/>
	<path fill="#fff" d="M390.379,336.601v-9.385h-3.312v-2.208h9.168v2.208h-3.336v9.385H390.379z"/>
	<path fill="#fff" d="M397.581,330.792c0-3.36,2.448-6.072,5.88-6.072c3.48,0,5.712,2.664,5.712,6.313v0.6h-8.953
		c0.192,1.753,1.512,3.192,3.696,3.192c1.128,0,2.472-0.456,3.289-1.271l1.152,1.655c-1.152,1.104-2.856,1.681-4.705,1.681
		C400.173,336.889,397.581,334.465,397.581,330.792z M403.461,326.784c-2.16,0-3.144,1.655-3.264,3.072h6.528
		C406.677,328.488,405.741,326.784,403.461,326.784z"/>
	<path fill="#fff" d="M413.783,336.601v-9.385h-3.312v-2.208h9.169v2.208h-3.336v9.385H413.783z"/>
	<path fill="#fff" d="M427.873,336.601v-11.593h2.521v7.801l5.328-7.801h2.521v11.593h-2.521v-8.017l-5.424,8.017H427.873z"/>
	<path fill="#fff" d="M441.508,336.601v-11.593h2.521v4.561h5.328v-4.561h2.521v11.593h-2.521v-4.824h-5.328v4.824H441.508z"/>
	<path fill="#fff" d="M457.254,336.601v-9.385h-3.313v-2.208h9.169v2.208h-3.336v9.385H457.254z"/>
	<path fill="#fff" d="M464.455,330.792c0-3.36,2.448-6.072,5.881-6.072c3.479,0,5.712,2.664,5.712,6.313v0.6h-8.952
		c0.191,1.753,1.512,3.192,3.696,3.192c1.128,0,2.472-0.456,3.288-1.271l1.152,1.655c-1.152,1.104-2.856,1.681-4.705,1.681
		C467.047,336.889,464.455,334.465,464.455,330.792z M470.336,326.784c-2.16,0-3.145,1.655-3.265,3.072h6.528
		C473.552,328.488,472.616,326.784,470.336,326.784z"/>
	<path fill="#fff" d="M481.066,334.992v6.024h-2.521v-16.009h2.521v1.584c0.864-1.152,2.208-1.872,3.721-1.872
		c3,0,5.136,2.256,5.136,6.072s-2.136,6.097-5.136,6.097C483.322,336.889,482.003,336.24,481.066,334.992z M487.307,330.792
		c0-2.232-1.271-3.84-3.264-3.84c-1.177,0-2.425,0.695-2.977,1.56v4.585c0.552,0.84,1.8,1.56,2.977,1.56
		C486.035,334.656,487.307,333.048,487.307,330.792z"/>
	<path fill="#fff" d="M492.42,336.601v-11.593h2.521v4.561h5.328v-4.561h2.521v11.593h-2.521v-4.824h-5.328v4.824H492.42z"/>
	<path fill="#fff" d="M505.334,330.792c0-3.36,2.448-6.072,5.881-6.072c3.479,0,5.712,2.664,5.712,6.313v0.6h-8.952
		c0.191,1.753,1.512,3.192,3.696,3.192c1.128,0,2.472-0.456,3.288-1.271l1.152,1.655c-1.152,1.104-2.856,1.681-4.705,1.681
		C507.926,336.889,505.334,334.465,505.334,330.792z M511.215,326.784c-2.16,0-3.145,1.655-3.265,3.072h6.528
		C514.431,328.488,513.495,326.784,511.215,326.784z"/>
	<path fill="#fff" d="M521.536,336.601v-9.385h-3.313v-2.208h9.169v2.208h-3.336v9.385H521.536z"/>
	<path fill="#fff" d="M528.546,331.872v-2.16h5.761v2.16H528.546z"/>
	<path fill="#fff" d="M544.507,336.601v-9.385h-5.328v9.385h-2.521v-11.593h10.369v11.593H544.507z"/>
	<path fill="#fff" d="M552.813,334.992v6.024h-2.521v-16.009h2.521v1.584c0.864-1.152,2.208-1.872,3.721-1.872
		c3,0,5.136,2.256,5.136,6.072s-2.136,6.097-5.136,6.097C555.069,336.889,553.75,336.24,552.813,334.992z M559.054,330.792
		c0-2.232-1.271-3.84-3.264-3.84c-1.177,0-2.425,0.695-2.977,1.56v4.585c0.552,0.84,1.8,1.56,2.977,1.56
		C557.782,334.656,559.054,333.048,559.054,330.792z"/>
	<path fill="#fff" d="M563.447,330.792c0-3.313,2.28-6.072,5.952-6.072c3.721,0,5.977,2.76,5.977,6.072
		c0,3.336-2.256,6.097-5.977,6.097C565.728,336.889,563.447,334.128,563.447,330.792z M572.76,330.792c0-2.04-1.2-3.84-3.36-3.84
		c-2.136,0-3.336,1.8-3.336,3.84c0,2.064,1.2,3.864,3.336,3.864C571.56,334.656,572.76,332.856,572.76,330.792z"/>
	<path fill="#fff" d="M585.025,326.615v-6.024h2.521v6.001c0.72-1.152,1.849-1.872,3.12-1.872c2.521,0,4.32,2.256,4.32,6.072
		s-1.8,6.097-4.32,6.097c-1.224,0-2.328-0.648-3.12-1.896v6.024h-2.521v-6c-0.72,1.152-1.848,1.872-3.12,1.872
		c-2.52,0-4.32-2.256-4.32-6.072s1.801-6.097,4.32-6.097C583.13,324.72,584.233,325.367,585.025,326.615z M580.129,330.816
		c0,2.231,1.009,3.84,2.568,3.84c0.912,0,1.896-0.696,2.328-1.56v-4.585c-0.432-0.84-1.416-1.56-2.328-1.56
		C581.138,326.952,580.129,328.56,580.129,330.816z M592.442,330.792c0-2.232-1.008-3.84-2.568-3.84
		c-0.912,0-1.896,0.695-2.328,1.56v4.585c0.433,0.84,1.416,1.56,2.328,1.56C591.435,334.656,592.442,333.048,592.442,330.792z"/>
	<path fill="#fff" d="M597.197,330.792c0-3.36,2.448-6.072,5.881-6.072c3.479,0,5.712,2.664,5.712,6.313v0.6h-8.952
		c0.191,1.753,1.512,3.192,3.696,3.192c1.128,0,2.472-0.456,3.288-1.271l1.152,1.655c-1.152,1.104-2.856,1.681-4.705,1.681
		C599.789,336.889,597.197,334.465,597.197,330.792z M603.078,326.784c-2.16,0-3.145,1.655-3.265,3.072h6.528
		C606.294,328.488,605.358,326.784,603.078,326.784z"/>
	<path fill="#fff" d="M610.567,330.792c0-3.504,2.473-6.072,6.001-6.072c2.256,0,3.624,0.96,4.439,2.064l-1.655,1.536
		c-0.648-0.912-1.536-1.368-2.665-1.368c-2.111,0-3.504,1.584-3.504,3.84s1.393,3.864,3.504,3.864c1.129,0,2.017-0.479,2.665-1.368
		l1.655,1.536c-0.815,1.104-2.184,2.064-4.439,2.064C613.04,336.889,610.567,334.32,610.567,330.792z"/>
	<path fill="#fff" d="M622.497,330.792c0-3.504,2.473-6.072,6.001-6.072c2.256,0,3.624,0.96,4.439,2.064l-1.655,1.536
		c-0.648-0.912-1.536-1.368-2.665-1.368c-2.111,0-3.504,1.584-3.504,3.84s1.393,3.864,3.504,3.864c1.129,0,2.017-0.479,2.665-1.368
		l1.655,1.536c-0.815,1.104-2.184,2.064-4.439,2.064C624.97,336.889,622.497,334.32,622.497,330.792z"/>
	<path fill="#fff" d="M635.146,336.601v-11.593h2.521v7.801l5.328-7.801h2.521v11.593h-2.521v-8.017l-5.424,8.017H635.146z"/>
	<path fill="#fff" d="M648.781,336.601v-11.593h2.521v7.801l5.328-7.801h2.521v11.593h-2.521v-8.017l-5.424,8.017H648.781z
		 M653.966,323.783c-1.704,0-3.24-0.815-4.225-2.112l1.152-0.96c0.696,0.96,1.752,1.584,3.072,1.584c1.272,0,2.353-0.6,3.049-1.584
		l1.151,0.96C657.206,322.968,655.694,323.783,653.966,323.783z"/>
</g>
</svg>
