<svg width="182" height="43" viewBox="0 0 182 43" version="1.1" xmlns="http://www.w3.org/2000/svg" xmlns:xlink="http://www.w3.org/1999/xlink"><title>40ADF645-0587-4BEA-A05C-E35E4C7284DB</title><desc>Created with sketchtool.</desc><g id="new" stroke="none" stroke-width="1" fill="none" fill-rule="evenodd"><g id="ЛК-Ученика" transform="translate(-214.000000, -23.000000)"><g id="Меню"><g id="лого" transform="translate(213.261719, 22.613281)"><g id="Group-11" transform="translate(1.000000, 1.000000)"><g id="FOXFORD_LOGO_RGB" transform="translate(0.333998, 0.165999)"><g id="Group-4" transform="translate(54.098799, 10.043600)" fill="#464646"><g id="Group-2" transform="translate(0.249999, 0.900000)"><path d="M30.0840897,10.3504159 C28.3413702,10.3504159 26.9224821,11.7193236 26.9224821,13.3999146 C26.9224821,15.0815469 28.3413702,16.4490663 30.0840897,16.4490663 C31.8275033,16.4490663 33.2456972,15.0815469 33.2456972,13.3999146 C33.2456972,11.7193236 31.8275033,10.3504159 30.0840897,10.3504159 M30.0840897,19.5350091 C26.2349045,19.5350091 23.7275543,16.7833102 23.7275543,13.3999146 C23.7275543,10.0168661 26.2734311,7.26482021 30.0840897,7.26482021 C33.9731898,7.26482021 36.4232708,10.0168661 36.4232708,13.3999146 C36.4232708,16.7833102 33.857263,19.5350091 30.0840897,19.5350091" id="Fill-1"/><path d="M90.7713011,10.3504159 C89.0278875,10.3504159 87.6089994,11.7193236 87.6089994,13.3999146 C87.6089994,15.0815469 89.0278875,16.4490663 90.7713011,16.4490663 C92.5140206,16.4490663 93.9322145,15.0815469 93.9322145,13.3999146 C93.9322145,11.7193236 92.5140206,10.3504159 90.7713011,10.3504159 M90.7713011,19.5350091 C86.9214218,19.5350091 84.4140716,16.7833102 84.4140716,13.3999146 C84.4140716,10.0168661 86.9602954,7.26482021 90.7713011,7.26482021 C94.6604012,7.26482021 97.109788,10.0168661 97.109788,13.3999146 C97.109788,16.7833102 94.5437803,19.5350091 90.7713011,19.5350091" id="Fill-3"/><path d="M18.6472199,11.8133145 C18.0325304,12.5054043 17.1585675,12.8570025 16.0503215,12.8570025 L13.3222245,12.8570025 L13.3222245,6.04509013 L16.2019982,6.04509013 C18.808615,6.04509013 19.5048698,8.15884466 19.5048698,9.40731347 C19.5048698,10.3232738 19.1921452,11.2003604 18.6472199,11.8133145 L18.6472199,11.8133145 Z M7.17359375,12.8570025 C4.44792638,12.8570025 3.71973968,10.6891025 3.71973968,9.40731347 C3.71973968,8.50870748 4.0220517,7.64897514 4.54892844,7.04955739 C5.13585109,6.38280494 5.96781654,6.04509013 7.02261129,6.04509013 L9.90169073,6.04509013 L9.90169073,12.8570025 L7.17359375,12.8570025 Z M16.2019982,2.85224483 L13.3222245,2.85224483 L13.3222245,0.746126195 L9.90169073,0.746126195 L9.90169073,2.85224483 L7.02261129,2.85224483 C2.75796401,2.85224483 0.526894374,6.15025723 0.526894374,9.40731347 C0.526894374,12.7084496 2.81002693,16.0495007 7.17359375,16.0495007 L9.90169073,16.0495007 L9.90169073,19.1503682 L13.3222245,19.1503682 L13.3222245,16.0495007 L16.0503215,16.0495007 C20.4138883,16.0495007 22.6970209,12.7084496 22.6970209,9.40731347 C22.6970209,6.15025723 20.4659513,2.85224483 16.2019982,2.85224483 L16.2019982,2.85224483 Z" id="Fill-5"/><polygon id="Fill-7" points="50.3601672 7.75133084 46.1267577 7.75133084 42.3893342 11.8323695 41.8943894 11.8323695 41.8943894 7.75133084 38.4738556 7.75133084 38.4738556 19.1503335 41.8943894 19.1503335 41.8943894 15.0252149 43.6298201 15.0252149 46.5245184 19.1503335 50.3566963 19.1503335 45.902193 12.6181725"/><path d="M60.9151258,16.1200286 C60.5034817,16.222419 58.8569051,16.6045609 57.3054301,16.6045609 C55.5415384,16.6045609 54.1774899,15.1294448 54.1774899,13.4287228 C54.1774899,11.7286949 55.4967643,10.3441683 57.2599618,10.3441683 C58.2904605,10.3441683 60.3382687,10.6492571 61.0397297,10.7672663 L61.556541,7.68826529 C61.4430438,7.66917555 58.7614564,7.3200069 57.2599618,7.3200069 C53.4840118,7.3200069 50.9398705,10.0068006 50.9398705,13.4287228 C50.9398705,16.850992 53.4840118,19.5350091 57.2599618,19.5350091 C59.0290598,19.5350091 60.7728205,19.1490493 61.5027426,18.9196253 L60.9151258,16.1200286 Z" id="Fill-9"/><path d="M76.451291,16.5593008 C76.0372173,16.5593008 75.3319382,16.5870677 74.2906799,16.5370873 L74.2906799,10.382209 C74.7578578,10.3523596 75.7342111,10.2999496 76.5529873,10.3173039 C78.1325762,10.3509712 79.5046077,11.4453338 79.5046077,13.2321332 C79.5046077,15.0196268 78.2401729,16.5593008 76.451291,16.5593008 M68.6838505,16.5593008 C66.8949686,16.5593008 65.6305338,15.0196268 65.6305338,13.2321332 C65.6305338,11.4453338 67.0025653,10.3509712 68.5821543,10.3173039 C69.4012776,10.2999496 70.3765896,10.3523596 70.8444617,10.382209 L70.8444617,16.5370873 C69.8032033,16.5870677 69.0979243,16.5593008 68.6838505,16.5593008 M76.6175453,7.43405941 C76.3190512,7.43405941 75.5884349,7.39622702 74.2906799,7.42711768 L74.2906799,2.8549521 L70.8444617,2.8549521 L70.8444617,7.42711768 C69.5467066,7.39622702 68.8160903,7.43405941 68.5186375,7.43405941 C64.6125302,7.43405941 62.375213,9.70018475 62.375213,13.1616747 C62.375213,16.6242059 64.1217504,19.3811111 68.6560836,19.3811111 L70.8444617,19.3811111 L70.8444617,23.9584829 L74.2906799,23.9584829 L74.2906799,19.3811111 L76.4790579,19.3811111 C81.0137382,19.3811111 82.7599285,16.6242059 82.7599285,13.1616747 C82.7599285,9.70018475 80.5226113,7.43405941 76.6175453,7.43405941" id="Fill-11"/><path d="M107.806983,13.2318208 C107.806983,15.0345862 106.533176,16.3059627 104.72937,16.3059627 C104.275728,16.3059627 103.47986,16.3524722 102.272,16.2813196 L102.272,10.2888775 C102.272,10.2888775 104.639127,10.2218899 104.923738,10.2201545 C106.516169,10.2104361 107.806983,11.431138 107.806983,13.2318208 L107.806983,13.2318208 Z M98.7976679,23.7228462 L102.272,23.7228462 L102.272,19.1600519 C102.272,19.1600519 103.747116,19.1503335 104.757137,19.1503335 C109.328261,19.1503335 111.088682,16.4878358 111.088682,12.9968435 C111.088682,9.50758665 108.924947,7.31365523 104.987602,7.31365523 C104.215335,7.31365523 98.7976679,7.719746 98.7976679,7.719746 L98.7976679,23.7228462 Z" id="Fill-13"/><path d="M118.218213,10.3954677 C118.041893,11.6786451 117.490026,14.8853739 117.126627,16.4285188 L120.960887,16.4285188 L120.960887,10.3954677 L118.218213,10.3954677 Z M124.371009,7.76906694 L124.371009,16.4285188 L126.447278,16.4285188 L125.864173,22.47823 L123.078807,22.47823 L123.078807,19.1503682 L115.07743,19.1503682 L115.07743,22.47823 L112.268809,22.47823 L111.589562,16.4285188 L113.833474,16.4285188 C114.680364,13.5744295 115.171144,10.3191087 115.34191,7.76906694 L124.371009,7.76906694 Z" id="Fill-15"/></g></g><path d="M4.91197838,25.0925902 C4.91250427,25.0925902 4.91303015,25.0931161 4.91355604,25.0931161 C5.06185647,24.8769761 8.40256026,19.6433383 10.6034017,16.9365925 C10.8066574,16.9053022 11.010965,16.8771672 11.2155354,16.8474545 C9.427779,13.2038392 6.25956649,10.3598367 2.3908711,9.00041608 C0.966240395,11.3511356 0.146117993,14.1091555 0.146117993,17.0583356 C0.146117993,20.8681315 1.51474162,24.3568728 3.7873668,27.0620409 C4.15128133,26.399159 4.5262395,25.7420619 4.91197838,25.0925902" id="Fill-17" fill="#F26722"/><path d="M2.93474452,10.4421907 C3.79246791,10.8500169 4.59655073,11.3511882 5.33936759,11.9272986 L5.60572988,10.567615 C4.60838321,9.93023873 3.53399394,9.40277302 2.39912754,9.00336106 C2.3964981,9.0059905 2.38729506,9.01545648 2.37335903,9.03018135 C1.72730557,10.1014153 1.20825407,11.2578431 0.833295898,12.4771145 L1.95080799,13.4158247 C2.16747386,12.3771958 2.49825744,11.380375 2.93474452,10.4421907" id="Fill-19" fill="#454545"/><path d="M9.72456392,18.0668048 C8.58286098,14.7024361 6.11066129,11.9525675 2.9348234,10.442217 C2.11759338,12.1986831 1.65849312,14.1547237 1.65849312,16.2193601 C1.65849312,19.6029238 2.88538992,22.6980379 4.9161066,25.0895137 C5.06493292,24.8707443 7.6189082,20.8729434 9.72456392,18.0668048" id="Fill-21" fill="#E8E8E8"/><path d="M29.2086107,16.9366977 C31.4107669,19.64581 34.7477895,24.8741889 34.8984564,25.0932213 L34.8989823,25.0926954 C35.2881394,25.7469001 35.6657271,26.4082043 36.032271,27.076608 C38.3114698,24.3690734 39.6848264,20.8745474 39.6848264,17.0584408 C39.6848264,14.1089977 38.8641781,11.3512408 37.4400733,9.00025832 C33.5703261,10.3602048 30.4021136,13.205522 28.6143572,16.8501891 C28.8120911,16.879113 29.0114027,16.9059333 29.2086107,16.9366977" id="Fill-23" fill="#F26722"/><path d="M36.896121,10.4421907 C37.333134,11.3809009 37.6633917,12.3782476 37.8800575,13.4174023 L39.0001991,12.4771145 C38.6252409,11.2578431 38.1061894,10.1014153 37.4601359,9.03018135 C37.4461999,9.01545648 37.4369969,9.0059905 37.4343674,9.00336106 C36.2992381,9.40277302 35.2251118,9.93023873 34.2277651,10.567615 L34.4941274,11.9259839 C35.2358925,11.3501364 36.0394494,10.849491 36.896121,10.4421907" id="Fill-25" fill="#454545"/><path d="M34.8983775,25.0931161 L34.8989034,25.0925902 C34.9015328,25.0952196 34.9031105,25.098375 34.9044252,25.1012673 C36.9417155,22.7084767 38.1722935,19.6088926 38.1722935,16.2192812 C38.1722935,14.1546448 37.7131933,12.1986042 36.8962262,10.4421382 C33.7151294,11.9551181 31.2397744,14.7120861 30.100175,18.0840802 C32.2124043,20.9015254 34.7669055,24.9022187 34.8983775,25.0931161" id="Fill-27" fill="#E8E8E8"/><polygon id="Fill-29" fill="#454545" points="19.9090169 0.153743369 4.52889523 8.00577773 4.52889523 8.36890343 19.9090169 16.2227784 35.2901904 8.36890343 35.2901904 8.00577773"/><polygon id="Fill-31" fill="#000" points="19.9090169 16.2228573 35.2901904 8.36898231 19.9090169 0.516685002 4.52889523 8.36898231"/><path d="M34.899403,25.0925902 C35.0792567,25.3944499 31.5182058,19.7774397 29.2085055,16.9365925 C26.176498,16.4656598 23.0700774,16.2198071 19.906072,16.2198071 C16.7418036,16.2198071 13.6353829,16.4656598 10.6033754,16.9365925 C8.40227102,19.6436012 5.06130429,24.8780279 4.91352975,25.0931161 C11.2375964,28.0136353 16.162012,33.4505288 18.3996657,40.1203669 L21.4122153,40.1203669 C23.6503948,33.450003 28.5742846,28.0131094 34.899403,25.0925902" id="Fill-33" fill="#F26722"/><path d="M17.0962521,26.7354907 C17.0962521,28.4170177 15.7326244,29.7793307 14.0524122,29.7793307 C12.371411,29.7793307 11.0080463,28.4170177 11.0080463,26.7354907 C11.0080463,25.0555414 12.371411,23.6927025 14.0524122,23.6927025 C15.7326244,23.6927025 17.0962521,25.0555414 17.0962521,26.7354907" id="Fill-37" fill="#F26722"/><path d="M16.7470099,26.7354907 C16.7470099,28.2234909 15.5395709,29.4298781 14.0523596,29.4298781 C12.5640964,29.4298781 11.3577092,28.2234909 11.3577092,26.7354907 C11.3577092,25.2477535 12.5640964,24.0408404 14.0523596,24.0408404 C15.5395709,24.0408404 16.7470099,25.2477535 16.7470099,26.7354907" id="Fill-39" fill="#E8E8E8"/><path d="M15.1621674,25.6713826 C15.1458649,26.0623803 14.8274397,26.3755467 14.4309201,26.3755467 C14.0262492,26.3755467 13.6970433,26.0463407 13.6970433,25.641144 C13.6970433,25.4810111 13.7493692,25.3342883 13.8361407,25.21386 C13.0893797,25.3190376 12.5143211,25.9595692 12.5143211,26.735517 C12.5143211,27.5864039 13.2029715,28.2745284 14.0522807,28.2745284 C14.9023787,28.2745284 15.591555,27.5864039 15.591555,26.735517 C15.591555,26.322432 15.427215,25.9477367 15.1621674,25.6713826" id="Fill-41" fill="#000"/><path d="M28.4392891,26.7354907 C28.4392891,28.4170177 27.0748726,29.7793307 25.3943973,29.7793307 C23.714448,29.7793307 22.3516091,28.4170177 22.3516091,26.7354907 C22.3516091,25.0555414 23.714448,23.6927025 25.3943973,23.6927025 C27.0748726,23.6927025 28.4392891,25.0555414 28.4392891,26.7354907" id="Fill-43" fill="#F26722"/><path d="M28.0895473,26.7354907 C28.0895473,28.2234909 26.8831601,29.4298781 25.394371,29.4298781 C23.9071597,29.4298781 22.7007725,28.2234909 22.7007725,26.7354907 C22.7007725,25.2477535 23.9071597,24.0408404 25.394371,24.0408404 C26.8831601,24.0408404 28.0895473,25.2477535 28.0895473,26.7354907" id="Fill-45" fill="#E8E8E8"/><path d="M26.5047048,25.6718822 C26.4878763,26.062617 26.1683994,26.3755204 25.7734574,26.3755204 C25.3687866,26.3755204 25.0395807,26.0463144 25.0395807,25.6411177 C25.0395807,25.4809848 25.0919065,25.334262 25.1786781,25.2138337 C24.4308653,25.3195372 23.8568585,25.9600688 23.8568585,26.7354907 C23.8568585,27.5863776 24.544983,28.2745021 25.3958698,28.2745021 C26.2433384,28.2745021 26.9335665,27.5863776 26.9335665,26.7354907 C26.9335665,26.3226686 26.7692264,25.9484993 26.5047048,25.6718822" id="Fill-47" fill="#000"/><path d="M34.620025,24.6663316 C36.1366861,22.5998546 37.0333252,20.0498235 37.0333252,17.2897001 C37.0333252,15.6163243 36.7020157,14.0213059 36.1046069,12.5627554 C33.3208186,13.4746453 31.1904461,15.8187912 30.5720018,18.722745 C32.1954182,20.9488291 33.9492548,23.6345393 34.620025,24.6663316" id="Fill-49" fill="#454545"/><path d="M9.25465666,18.7023405 C8.63069049,15.8078527 6.50347336,13.4726469 3.72625861,12.5625976 C3.12884979,14.0211481 2.79701444,15.6164295 2.79701444,17.2898052 C2.79701444,20.0438809 3.69023528,22.5883902 5.20058574,24.6530267 C5.88055898,23.6072983 7.63492149,20.9213251 9.25465666,18.7023405" id="Fill-51" fill="#454545"/><path d="M11.9395518,16.7461685 C14.5463788,16.40066 17.2050058,16.2197545 19.9059668,16.2197545 C22.6092943,16.2197545 25.2700248,16.4011859 27.8794813,16.7469573 L27.8794813,10.6784722 L27.8584458,10.6784722 C27.866597,10.6203616 27.8794813,10.5627769 27.8794813,10.5033515 C27.8794813,8.59332615 24.3113309,7.04248231 19.9091221,7.04248231 C15.5061245,7.04248231 11.9395518,8.59332615 11.9395518,10.5033515 C11.9395518,10.5627769 11.9534878,10.6203616 11.9600614,10.6784722 L11.9395518,10.6784722 L11.9395518,16.7461685 Z" id="Fill-53" fill="#454545"/><path d="M34.899403,25.0925902 C29.6210647,27.5298183 25.3193005,31.7206201 22.7392938,36.9177087 C23.2570306,37.3313197 23.6191045,37.8572077 23.7571501,38.443047 C26.9997758,34.8733189 31.6767611,32.6306694 36.8796344,32.6306694 C37.5309468,32.6306694 38.173319,32.6682704 38.8064882,32.7368988 C37.6650482,30.096152 36.3563758,27.5448061 34.899403,25.0925902" id="Fill-55" fill="#E8E8E8"/><path d="M25.390795,31.2458484 C22.9417344,31.2458484 20.9488816,29.2535216 20.9488816,26.8049868 C20.9488816,24.3559262 22.9417344,22.3641253 25.390795,22.3641253 C27.8390668,22.3641253 29.8311307,24.3559262 29.8311307,26.8049868 C29.8311307,29.2535216 27.8390668,31.2458484 25.390795,31.2458484 M31.713284,25.935431 L31.1513726,25.935431 C30.7303992,23.1337624 28.3073701,20.9791991 25.390795,20.9791991 C22.177882,20.9791991 19.5639555,23.5925997 19.5639555,26.8049868 C19.5639555,30.0173739 22.177882,32.6307746 25.390795,32.6307746 C28.3073701,32.6307746 30.7303992,30.4762113 31.1513726,27.6750686 L31.713284,27.6750686 C32.1342574,27.6750686 32.4795029,27.3295602 32.4795029,26.9077979 L32.4795029,26.7021757 C32.4795029,26.2804135 32.1342574,25.935431 31.713284,25.935431" id="Fill-57" fill="#454545"/><path d="M17.0726135,36.9176298 C14.4923438,31.7205412 10.1908426,27.5297394 4.91197838,25.0925113 C3.45500556,27.5447272 2.14738494,30.096336 1.00541905,32.7365569 C1.63858826,32.6681915 2.28043461,32.6305905 2.93174695,32.6305905 C8.13514619,32.6305905 12.8121315,34.873503 16.0547572,38.443231 C16.1928028,37.8571288 16.5548767,37.3312408 17.0726135,36.9176298" id="Fill-59" fill="#E8E8E8"/><path d="M32.2206608,33.2515591 C28.9149285,34.1503018 25.9946722,35.9817069 23.7575445,38.4452294 C23.7977749,38.6166689 23.8224917,38.7923155 23.8224917,38.9724322 C23.8224917,39.0100332 23.8167069,39.0465824 23.8151292,39.0841834 C24.2305808,39.1399275 24.6539207,39.1725326 25.084623,39.1725326 C28.3375035,39.1725326 31.2172664,37.5798806 32.9910868,35.1339754 C32.7449712,34.5010691 32.487286,33.8739476 32.2206608,33.2515591" id="Fill-61" fill="#454545"/><path d="M15.9895208,38.9723796 C15.9895208,38.7922629 16.0142375,38.6166163 16.054205,38.4457027 C13.818129,35.983232 10.9005022,34.1528786 7.59792526,33.2536101 C7.33182591,33.8749468 7.07414077,34.5018053 6.82802517,35.1339228 C8.60237142,37.5803539 11.4813455,39.17248 14.7339631,39.17248 C15.1630877,39.17248 15.5837981,39.1406638 15.9971461,39.0851826 C15.9955685,39.0470557 15.9895208,39.0107694 15.9895208,38.9723796" id="Fill-63" fill="#454545"/><path d="M23.8223602,38.9723796 C23.8223602,40.619198 22.0690495,41.9541648 19.905809,41.9541648 C17.7428315,41.9541648 15.9895208,40.619198 15.9895208,38.9723796 C15.9895208,37.3255612 17.7428315,35.9903314 19.905809,35.9903314 C22.0690495,35.9903314 23.8223602,37.3255612 23.8223602,38.9723796" id="Fill-65" fill="#000"/><path d="M21.0732805,37.7072244 C21.0732805,38.1981409 20.5505478,38.5959752 19.906072,38.5959752 C19.2613332,38.5959752 18.7386005,38.1981409 18.7386005,37.7072244 C18.7386005,37.2165709 19.2613332,36.8182107 19.906072,36.8182107 C20.5505478,36.8182107 21.0732805,37.2165709 21.0732805,37.7072244" id="Fill-67" fill="#E8E8E8"/><path d="M8.11710823,12.1423342 L8.11710823,6.8842426 L8.11710823,6.32127945 C8.11710823,6.03072631 7.87993272,5.7935508 7.58911664,5.7935508 L7.4479157,5.7935508 C7.15788844,5.7935508 6.9199241,6.03072631 6.9199241,6.32127945 L6.9199241,12.0913231 C6.37247465,13.1607164 5.36487316,15.1406849 5.16924281,15.6071476 C5.85894498,15.9978824 6.65540242,16.2229625 7.50497455,16.2229625 C8.35480963,16.2229625 9.15100412,15.9978824 9.84123218,15.6071476 C9.64849421,15.1480473 8.66981656,13.2219823 8.11710823,12.1423342" id="Fill-69" fill="#1A73BA"/></g></g></g></g></g></g></svg>